<svg width="340" height="66" viewBox="0 0 340 66" fill="none" xmlns="http://www.w3.org/2000/svg">
<path d="M13.86 52.14L-8.43293e-07 46.7077L31.35 34.65L19.2923 66L13.86 52.14Z" fill="#F27F0C"/>
<path d="M65.9999 0H22.2056L0 22.4093H43.8976V65.9999L65.9999 43.8976L65.9999 0Z" fill="#053F5C"/>
<path d="M93.05 51H101.05V38H115.5V31.65H101.05V23.35H117.45V17H93.05V51ZM121.653 21.4H129.303V15H121.653V21.4ZM121.653 51H129.303V24.1H121.653V51ZM159.796 42.15H151.796C150.996 44.6 149.296 45.7 146.796 45.7C143.496 45.7 141.496 43.4 141.096 39.1H159.596V37.4C159.596 28.6 154.546 23.25 146.496 23.25C138.496 23.25 133.296 28.4 133.296 37.55C133.296 46.4 138.446 51.8 146.796 51.8C153.396 51.8 158.396 48.35 159.796 42.15ZM146.496 29.35C149.296 29.35 151.096 31.2 151.696 34.7H141.246C141.846 31.2 143.646 29.35 146.496 29.35ZM163.791 51H171.441V15H163.791V51ZM186.684 51.8C189.484 51.8 191.834 50.5 193.484 48.15V51H201.134V15H193.484V26.75C191.834 24.45 189.534 23.25 186.684 23.25C179.884 23.25 175.434 28.4 175.434 37.55C175.434 46.4 179.784 51.8 186.684 51.8ZM188.334 45.6C185.084 45.6 183.284 42.75 183.284 37.55C183.284 32.3 185.034 29.45 188.334 29.45C191.684 29.45 193.484 32.35 193.484 37.55C193.484 42.8 191.734 45.6 188.334 45.6ZM213.922 62.05V48.3C215.522 50.6 217.822 51.8 220.672 51.8C227.522 51.8 231.972 46.65 231.972 37.5C231.972 28.7 227.622 23.25 220.672 23.25C217.872 23.25 215.572 24.55 213.922 26.9V24.1H206.272V62.05H213.922ZM219.072 29.45C222.322 29.45 224.122 32.3 224.122 37.5C224.122 42.75 222.372 45.6 219.072 45.6C215.722 45.6 213.922 42.7 213.922 37.5C213.922 32.3 215.672 29.45 219.072 29.45ZM236.008 51H243.658V37.1C243.658 32.85 245.708 30.25 250.308 30.25C251.508 30.25 252.458 30.35 253.358 30.55V24.1C252.808 23.55 251.808 23.25 250.708 23.25C247.958 23.25 245.358 24.65 243.658 27.85V24.1H236.008V51ZM267.98 51.8C275.98 51.8 281.23 46.65 281.23 37.55C281.23 28.75 276.13 23.25 267.98 23.25C259.98 23.25 254.78 28.4 254.78 37.55C254.78 46.4 259.83 51.8 267.98 51.8ZM267.98 45.6C264.53 45.6 262.63 42.75 262.63 37.55C262.63 32.3 264.48 29.45 267.98 29.45C271.48 29.45 273.38 32.35 273.38 37.55C273.38 42.8 271.53 45.6 267.98 45.6ZM300.455 51H309.305L300.055 37.1L308.655 24.1H300.655L297.205 29.8L295.955 32.45L294.655 29.8L291.155 24.1H282.305L290.955 37.1L281.705 51H289.755L293.805 44.35L295.105 41.75L296.355 44.35L300.455 51ZM315.781 62.85C320.831 62.85 323.631 60.45 326.481 53.1L337.881 24.1H330.081L325.181 38.4L324.081 42.45L323.081 38.4L317.931 24.1H309.781L320.181 49.8L319.631 51.15C317.931 55.7 316.281 56.3 313.581 56.3H312.031V62.1C312.731 62.4 314.281 62.85 315.781 62.85Z" fill="#053F5C"/>
</svg>
