<svg width="24" height="24" viewBox="0 0 24 24" fill="none" xmlns="http://www.w3.org/2000/svg">
<g clip-path="url(#clip0_51_4860)">
<path d="M22.2691 0H1.7309C0.774902 0 0 0.774902 0 1.7309V22.2691C0 23.2251 0.774902 24 1.7309 24H22.2691C23.2251 24 24 23.2251 24 22.2691V1.7309C24 0.774902 23.2251 0 22.2691 0V0ZM13.5482 18.7766C10.5952 18.8275 9.47662 16.673 9.47662 15.1566V10.7278H8.10461V8.97693C10.1613 8.23535 10.6556 6.38049 10.7717 5.32379C10.7798 5.2511 10.8369 5.22253 10.8695 5.22253H12.8546V8.67554H15.5674V10.728H12.8452V14.9476C12.854 15.5213 13.0646 16.3127 14.1498 16.2836C14.5093 16.2746 14.9912 16.17 15.2433 16.0497L15.8952 17.9824C15.6509 18.3426 14.5444 18.7595 13.5482 18.7766V18.7766Z" fill="#060622"/>
</g>
<defs>
<clipPath id="clip0_51_4860">
<rect width="24" height="24" fill="white"/>
</clipPath>
</defs>
</svg>
