<svg width="24" height="24" viewBox="0 0 24 24" fill="none" xmlns="http://www.w3.org/2000/svg">
<g clip-path="url(#clip0_51_4857)">
<path d="M10.5059 14.2483L14.4093 12.0001L10.5059 9.75195V14.2483Z" fill="#060622"/>
<path d="M22.2691 0H1.7309C0.774902 0 0 0.774902 0 1.7309V22.2691C0 23.2251 0.774902 24 1.7309 24H22.2691C23.2251 24 24 23.2251 24 22.2691V1.7309C24 0.774902 23.2251 0 22.2691 0V0ZM19.4982 12.0123C19.4982 12.0123 19.4982 14.4459 19.1895 15.6194C19.0164 16.2618 18.5099 16.7682 17.8676 16.9411C16.6941 17.25 12 17.25 12 17.25C12 17.25 7.31818 17.25 6.13239 16.9288C5.49005 16.756 4.98358 16.2493 4.81055 15.607C4.50165 14.4459 4.50165 12 4.50165 12C4.50165 12 4.50165 9.56653 4.81055 8.39301C4.9834 7.75067 5.50232 7.23175 6.13239 7.0589C7.30591 6.75 12 6.75 12 6.75C12 6.75 16.6941 6.75 17.8676 7.07117C18.5099 7.24402 19.0164 7.75067 19.1895 8.39301C19.5106 9.56653 19.4982 12.0123 19.4982 12.0123V12.0123Z" fill="#060622"/>
</g>
<defs>
<clipPath id="clip0_51_4857">
<rect width="24" height="24" fill="white"/>
</clipPath>
</defs>
</svg>
